<svg version="1.1" viewBox="0.0 0.0 384.0 384.0" fill="none" stroke="none" stroke-linecap="square" stroke-miterlimit="10" xmlns:xlink="http://www.w3.org/1999/xlink" xmlns="http://www.w3.org/2000/svg"><clipPath id="g122aae67796_1_5.0"><path d="m0 0l384.0 0l0 384.0l-384.0 0l0 -384.0z" clip-rule="nonzero"/></clipPath><g clip-path="url(#g122aae67796_1_5.0)"><path fill="#000000" fill-opacity="0.0" d="m0 0l384.0 0l0 384.0l-384.0 0z" fill-rule="evenodd"/><path fill="#ff9900" d="m0 63.082626l0 0c0 -34.839573 28.243053 -63.082626 63.082626 -63.082626l257.83472 0l0 0c16.73056 0 32.77588 6.6461864 44.60617 18.476473c11.830292 11.830288 18.47647 27.8756 18.47647 44.606155l0 252.32292c0 34.8396 -28.243042 63.08264 -63.08264 63.08264l-257.83472 0c-34.839573 0 -63.082626 -28.243042 -63.082626 -63.08264z" fill-rule="evenodd"/><path fill="#ffffff" d="m0 54.503937l384.0 0l0 268.37796l-384.0 0z" fill-rule="evenodd"/><path fill="#595959" d="m106.0918 266.55292l0 -151.25l13.609375 0l0 138.28125l57.90625 0l0 12.96875l-71.515625 0zm93.13281 0l0 -151.25l85.109375 0l0 12.984375l-71.5 0l0 56.203125l57.90625 0l0 12.984375l-57.90625 0l0 56.109375l71.5 0l0 12.96875l-85.109375 0z" fill-rule="nonzero"/></g></svg>