<svg version="1.1" viewBox="0.0 0.0 384.0 384.0" fill="none" stroke="none" stroke-linecap="square" stroke-miterlimit="10" xmlns:xlink="http://www.w3.org/1999/xlink" xmlns="http://www.w3.org/2000/svg"><clipPath id="g11b3c3a78aa_0_6.0"><path d="m0 0l384.0 0l0 384.0l-384.0 0l0 -384.0z" clip-rule="nonzero"/></clipPath><g clip-path="url(#g11b3c3a78aa_0_6.0)"><path fill="#000000" fill-opacity="0.0" d="m0 0l384.0 0l0 384.0l-384.0 0z" fill-rule="evenodd"/><path fill="#ff9900" d="m0 63.082626l0 0c0 -34.839573 28.243053 -63.082626 63.082626 -63.082626l257.83472 0l0 0c16.73056 0 32.77588 6.6461864 44.60617 18.476473c11.830292 11.830288 18.47647 27.8756 18.47647 44.606155l0 252.32292c0 34.8396 -28.243042 63.08264 -63.08264 63.08264l-257.83472 0c-34.839573 0 -63.082626 -28.243042 -63.082626 -63.08264z" fill-rule="evenodd"/><path fill="#ffffff" d="m0 54.503937l384.0 0l0 268.37796l-384.0 0z" fill-rule="evenodd"/><path fill="#595959" d="m176.28125 266.55292l0 -103.671875l-0.9375 6.421875l-35.125 97.25l-7.171875 0l-35.4375 -97.25l-0.84375 -6.421875l0 103.671875l-13.609375 0l0 -151.25l7.0625 0l45.890625 124.03125l0.421875 5.59375l0.421875 -5.59375l45.765625 -124.03125l7.171875 0l0 151.25l-13.609375 0zm133.20703 -37.125q0 7.703125 -2.90625 14.453125q-2.890625 6.75 -7.953125 11.8125q-5.0625 5.0625 -11.875 7.96875q-6.796875 2.890625 -14.484375 2.890625l-47.890625 0l0 -151.25l47.890625 0q7.6875 0 14.484375 2.90625q6.8125 2.90625 11.875 7.96875q5.0625 5.0625 7.953125 11.859375q2.90625 6.796875 2.90625 14.5l0 1.484375q0 5.375 -1.421875 10.28125q-1.421875 4.90625 -4.0625 9.125q-2.625 4.21875 -6.21875 7.640625q-3.578125 3.421875 -8.015625 5.75q4.4375 2.3125 8.015625 5.75q3.59375 3.421875 6.21875 7.703125q2.640625 4.265625 4.0625 9.171875q1.421875 4.90625 1.421875 10.28125l0 9.703125l0 0zm-13.59375 -11.921875q0 -5.0625 -1.90625 -9.4375q-1.890625 -4.375 -5.21875 -7.640625q-3.328125 -3.28125 -7.703125 -5.171875q-4.375 -1.90625 -9.4375 -1.90625l-33.640625 0l0 60.234375l33.640625 0q5.0625 0 9.4375 -1.890625q4.375 -1.90625 7.703125 -5.171875q3.328125 -3.28125 5.21875 -7.65625q1.90625 -4.375 1.90625 -9.4375l0 -11.921875zm0 -64.96875q0 -5.0625 -1.90625 -9.4375q-1.890625 -4.375 -5.21875 -7.6875q-3.328125 -3.328125 -7.703125 -5.21875q-4.375 -1.90625 -9.4375 -1.90625l-33.640625 0l0 52.09375l33.640625 0q5.0625 0 9.4375 -1.890625q4.375 -1.90625 7.703125 -5.21875q3.328125 -3.328125 5.21875 -7.703125q1.90625 -4.375 1.90625 -9.4375l0 -3.59375z" fill-rule="nonzero"/></g></svg>