<svg version="1.1" viewBox="0.0 0.0 1536.0 384.0" fill="none" stroke="none" stroke-linecap="square" stroke-miterlimit="10" xmlns:xlink="http://www.w3.org/1999/xlink" xmlns="http://www.w3.org/2000/svg"><clipPath id="g10fc4b99098_0_0.0"><path d="m0 0l1536.0 0l0 384.0l-1536.0 0l0 -384.0z" clip-rule="nonzero"/></clipPath><g clip-path="url(#g10fc4b99098_0_0.0)"><path fill="#000000" fill-opacity="0.0" d="m0 0l1536.0 0l0 384.0l-1536.0 0z" fill-rule="evenodd"/><path fill="#000000" fill-opacity="0.0" d="m0.005249344 0l1536.0 0l0 384.0l-1536.0 0z" fill-rule="evenodd"/><path fill="#000000" d="m493.60388 95.20938q5.578125 0 9.828125 3.234375q4.265625 3.21875 5.71875 8.5l58.671875 190.65625l-45.765625 0l-41.359375 -148.71875q-1.171875 -4.984375 -2.34375 -10.109375q-1.171875 -5.140625 -2.046875 -9.828125l-7.921875 0q-0.875 4.6875 -1.90625 9.828125q-1.03125 5.125 -2.5 10.109375l-41.359375 148.71875l-46.046875 0l58.953125 -190.65625q1.46875 -5.28125 5.71875 -8.5q4.265625 -3.234375 9.828125 -3.234375l42.53125 0zm31.09375 115.265625l0 33.734375l-105.0 0l0 -33.734375l105.0 0zm113.53027 -97.96875l0 138.75q0 7.921875 3.65625 11.296875q3.671875 3.375 12.171875 3.375l18.78125 0l4.6875 29.328125q-5.28125 1.75 -12.90625 3.0625q-7.625 1.328125 -15.25 2.0625q-7.625 0.734375 -12.90625 0.734375q-19.65625 0 -30.65625 -10.546875q-11.0 -10.5625 -11.0 -29.640625l-0.296875 -148.42188l43.71875 0zm40.46875 40.1875l0 28.453125l-109.40625 0l0 -26.984375l28.15625 -1.46875l81.25 0zm124.07703 -3.8125q41.078125 0 41.078125 40.1875l0 108.53125l-43.71875 0l0 -95.03125q0 -9.6875 -3.375 -13.34375q-3.359375 -3.671875 -11.875 -3.671875q-9.390625 0 -19.359375 3.515625q-9.96875 3.515625 -24.640625 11.4375l-3.8125 -22.578125q16.140625 -14.078125 32.859375 -21.5625q16.71875 -7.484375 32.84375 -7.484375zm-57.484375 -56.609375l0.296875 50.15625q0 11.4375 -1.328125 21.703125q-1.3125 10.265625 -3.078125 17.3125l4.109375 3.8125l0 112.34375l-43.421875 0l0 -205.32812l43.421875 0zm209.43079 56.609375q18.1875 0 30.796875 4.84375q12.625 4.84375 19.21875 16.4375q6.59375 11.578125 6.59375 31.8125l0 95.625l-34.609375 0l-6.15625 -31.390625l-2.9375 -4.390625l0 -60.140625q0 -10.265625 -4.84375 -14.953125q-4.828125 -4.703125 -18.328125 -4.703125q-11.140625 0 -27.859375 0.734375q-16.71875 0.734375 -34.328125 1.90625l-4.109375 -28.734375q10.5625 -2.0625 24.34375 -3.515625q13.796875 -1.46875 27.578125 -2.5q13.796875 -1.03125 24.640625 -1.03125zm38.71875 59.546875l-0.296875 24.34375l-64.53125 0.296875q-7.921875 0 -11.296875 3.8125q-3.359375 3.8125 -3.359375 10.265625l0 7.046875q0 7.328125 4.09375 11.296875q4.109375 3.953125 13.203125 3.953125q7.625 0 16.578125 -3.21875q8.953125 -3.234375 17.75 -9.09375q8.796875 -5.875 15.546875 -13.796875l0 18.765625q-2.640625 4.40625 -7.78125 11.015625q-5.125 6.59375 -13.046875 12.90625q-7.921875 6.296875 -18.484375 10.703125q-10.5625 4.390625 -24.046875 4.390625q-13.203125 0 -23.765625 -4.6875q-10.5625 -4.6875 -16.71875 -13.78125q-6.15625 -9.09375 -6.15625 -22.59375l0 -14.953125q0 -17.3125 11.734375 -26.984375q11.734375 -9.6875 32.265625 -9.6875l78.3125 0zm107.07202 -59.546875q10.5625 0 22.875 0.734375q12.3125 0.734375 24.046875 1.90625q11.734375 1.171875 20.828125 2.9375l-2.921875 26.984375q-14.09375 -0.296875 -28.328125 -0.4375q-14.21875 -0.15625 -27.703125 -0.15625q-11.4375 -0.28125 -17.609375 0.3125q-6.15625 0.578125 -8.65625 2.78125q-2.484375 2.1875 -2.484375 7.765625q0 6.453125 4.390625 8.65625q4.40625 2.203125 14.671875 4.84375l37.84375 9.078125q18.1875 4.703125 26.984375 13.953125q8.796875 9.234375 8.796875 27.703125q0 18.1875 -6.75 27.875q-6.734375 9.671875 -21.40625 13.34375q-14.65625 3.671875 -37.84375 3.671875q-9.078125 0 -26.984375 -0.890625q-17.890625 -0.875 -39.296875 -4.390625l2.9375 -27.0q5.265625 0.296875 13.484375 0.453125q8.21875 0.140625 17.890625 0.140625q9.6875 0 19.359375 0q14.96875 0 22.875 -0.734375q7.921875 -0.734375 10.859375 -3.375q2.9375 -2.640625 2.9375 -7.921875q0 -6.453125 -4.984375 -8.796875q-4.984375 -2.34375 -15.84375 -4.984375l-36.671875 -9.09375q-13.78125 -3.8125 -21.40625 -9.671875q-7.625 -5.875 -10.703125 -14.375q-3.078125 -8.515625 -3.078125 -20.25q0 -14.953125 6.0 -23.890625q6.015625 -8.953125 19.65625 -13.0625q13.640625 -4.109375 36.234375 -4.109375zm201.5072 0q41.078125 0 41.078125 40.1875l0 108.53125l-43.71875 0l0 -95.03125q0 -9.6875 -3.375 -13.34375q-3.359375 -3.671875 -11.875 -3.671875q-9.390625 0 -19.359375 3.515625q-9.96875 3.515625 -24.640625 11.4375l-3.8125 -22.578125q16.140625 -14.078125 32.859375 -21.5625q16.71875 -7.484375 32.84375 -7.484375zm-57.484375 -56.609375l0.296875 50.15625q0 11.4375 -1.328125 21.703125q-1.3125 10.265625 -3.078125 17.3125l4.109375 3.8125l0 112.34375l-43.421875 0l0 -205.32812l43.421875 0zm209.43079 56.609375q18.1875 0 30.796875 4.84375q12.625 4.84375 19.21875 16.4375q6.59375 11.578125 6.59375 31.8125l0 95.625l-34.609375 0l-6.15625 -31.390625l-2.9375 -4.390625l0 -60.140625q0 -10.265625 -4.84375 -14.953125q-4.828125 -4.703125 -18.328125 -4.703125q-11.140625 0 -27.859375 0.734375q-16.71875 0.734375 -34.328125 1.90625l-4.109375 -28.734375q10.5625 -2.0625 24.34375 -3.515625q13.796875 -1.46875 27.578125 -2.5q13.796875 -1.03125 24.640625 -1.03125zm38.71875 59.546875l-0.296875 24.34375l-64.53125 0.296875q-7.921875 0 -11.296875 3.8125q-3.359375 3.8125 -3.359375 10.265625l0 7.046875q0 7.328125 4.09375 11.296875q4.109375 3.953125 13.203125 3.953125q7.625 0 16.578125 -3.21875q8.953125 -3.234375 17.75 -9.09375q8.796875 -5.875 15.546875 -13.796875l0 18.765625q-2.640625 4.40625 -7.78125 11.015625q-5.125 6.59375 -13.046875 12.90625q-7.921875 6.296875 -18.484375 10.703125q-10.5625 4.390625 -24.046875 4.390625q-13.203125 0 -23.765625 -4.6875q-10.5625 -4.6875 -16.71875 -13.78125q-6.15625 -9.09375 -6.15625 -22.59375l0 -14.953125q0 -17.3125 11.734375 -26.984375q11.734375 -9.6875 32.265625 -9.6875l78.3125 0z" fill-rule="nonzero"/><path fill="#e06666" d="m3.1465886 3.0596724l189.1181 378.23624l189.11812 -378.23624z" fill-rule="evenodd"/><path stroke="#ffffff" stroke-width="4.0" stroke-linejoin="round" stroke-linecap="butt" d="m3.1465886 3.0596724l189.1181 378.23624l189.11812 -378.23624z" fill-rule="evenodd"/><path fill="#6aa84f" d="m3.1465886 2.8497806l94.566925 189.13387l94.566925 -189.13387z" fill-rule="evenodd"/><path stroke="#ffffff" stroke-width="4.0" stroke-linejoin="round" stroke-linecap="butt" d="m3.1465886 2.8497806l94.566925 189.13387l94.566925 -189.13387z" fill-rule="evenodd"/><path fill="#4a86e8" d="m192.49046 2.8497806l94.56694 189.13387l94.566925 -189.13387z" fill-rule="evenodd"/><path stroke="#ffffff" stroke-width="4.0" stroke-linejoin="round" stroke-linecap="butt" d="m192.49046 2.8497806l94.56694 189.13387l94.566925 -189.13387z" fill-rule="evenodd"/><path fill="#ff9900" d="m97.6288 191.81421l94.566925 189.13385l94.56694 -189.13385z" fill-rule="evenodd"/><path stroke="#ffffff" stroke-width="4.0" stroke-linejoin="round" stroke-linecap="butt" d="m97.6288 191.81421l94.566925 189.13385l94.56694 -189.13385z" fill-rule="evenodd"/></g></svg>