<svg version="1.1" viewBox="0.0 0.0 384.0 384.0" fill="none" stroke="none" stroke-linecap="square" stroke-miterlimit="10" xmlns:xlink="http://www.w3.org/1999/xlink" xmlns="http://www.w3.org/2000/svg"><clipPath id="g122aae67796_0_0.0"><path d="m0 0l384.0 0l0 384.0l-384.0 0l0 -384.0z" clip-rule="nonzero"/></clipPath><g clip-path="url(#g122aae67796_0_0.0)"><path fill="#000000" fill-opacity="0.0" d="m0 0l384.0 0l0 384.0l-384.0 0z" fill-rule="evenodd"/><path fill="#4a86e8" d="m0 63.082626l0 0c0 -34.839573 28.243053 -63.082626 63.082626 -63.082626l257.83472 0l0 0c16.73056 0 32.77588 6.6461864 44.60617 18.476473c11.830292 11.830288 18.47647 27.8756 18.47647 44.606155l0 252.32292c0 34.8396 -28.243042 63.08264 -63.08264 63.08264l-257.83472 0c-34.839573 0 -63.082626 -28.243042 -63.082626 -63.08264z" fill-rule="evenodd"/><path fill="#ffffff" d="m0.35170603 54.503937l383.65353 0l0 268.37796l-383.65353 0z" fill-rule="evenodd"/><path fill="#595959" d="m180.30933 229.42792q0 7.703125 -2.90625 14.453125q-2.890625 6.75 -7.953125 11.8125q-5.0625 5.0625 -11.875 7.96875q-6.796875 2.890625 -14.484375 2.890625l-47.890617 0l0 -151.25l47.890617 0q7.6875 0 14.484375 2.90625q6.8125 2.90625 11.875 7.96875q5.0625 5.0625 7.953125 11.859375q2.90625 6.796875 2.90625 14.5l0 76.890625l0 0zm-13.59375 -76.890625q0 -5.0625 -1.90625 -9.4375q-1.890625 -4.375 -5.21875 -7.6875q-3.328125 -3.328125 -7.703125 -5.21875q-4.375 -1.90625 -9.4375 -1.90625l-33.640617 0l0 125.296875l33.640617 0q5.0625 0 9.4375 -1.890625q4.375 -1.90625 7.703125 -5.171875q3.328125 -3.28125 5.21875 -7.65625q1.90625 -4.375 1.90625 -9.4375l0 -76.890625zm131.08597 18.78125q0 7.6875 -2.90625 14.4375q-2.890625 6.75 -7.953125 11.8125q-5.0625 5.0625 -11.875 7.96875q-6.796875 2.90625 -14.484375 2.90625l-34.28128 0l0 58.109375l-13.609375 0l0 -151.25l47.890656 0q7.6875 0 14.484375 2.90625q6.8125 2.90625 11.875 7.96875q5.0625 5.0625 7.953125 11.859375q2.90625 6.796875 2.90625 14.5l0 18.78125l0 0zm-13.59375 -18.78125q0 -5.0625 -1.90625 -9.4375q-1.890625 -4.375 -5.21875 -7.6875q-3.328125 -3.328125 -7.703125 -5.21875q-4.375 -1.90625 -9.4375 -1.90625l-33.640656 0l0 67.171875l33.640656 0q5.0625 0 9.4375 -1.890625q4.375 -1.90625 7.703125 -5.171875q3.328125 -3.265625 5.21875 -7.640625q1.90625 -4.375 1.90625 -9.4375l0 -18.78125z" fill-rule="nonzero"/></g></svg>