<svg version="1.1" viewBox="0.0 0.0 384.0 384.0" fill="none" stroke="none" stroke-linecap="square" stroke-miterlimit="10" xmlns:xlink="http://www.w3.org/1999/xlink" xmlns="http://www.w3.org/2000/svg"><clipPath id="g12213a5f915_0_0.0"><path d="m0 0l384.0 0l0 384.0l-384.0 0l0 -384.0z" clip-rule="nonzero"/></clipPath><g clip-path="url(#g12213a5f915_0_0.0)"><path fill="#000000" fill-opacity="0.0" d="m0 0l384.0 0l0 384.0l-384.0 0z" fill-rule="evenodd"/><path fill="#000000" fill-opacity="0.0" d="m-74.47792 -16.0l502.3307 0l0 407.24408l-502.3307 0z" fill-rule="evenodd"/><path fill="#595959" d="m171.70842 250.08453q0 14.90625 -5.625 28.0q-5.609375 13.078125 -15.421875 22.890625q-9.8125 9.796875 -22.984375 15.421875q-13.171875 5.625 -28.078125 5.625l-90.53125 0l0 -276.9375l90.53125 0q14.90625 0 28.078125 5.625q13.171875 5.625 22.984375 15.4375q9.828125 9.8125 15.4375 23.0q5.609375 13.171875 5.609375 28.0625l0 132.875l0 0zm-39.046875 -132.875q0 -7.140625 -2.671875 -13.296875q-2.65625 -6.15625 -7.359375 -10.84375q-4.703125 -4.703125 -10.84375 -7.359375q-6.140625 -2.671875 -13.28125 -2.671875l-50.39062 0l0 201.03125l50.39062 0q7.140625 0 13.296875 -2.671875q6.15625 -2.671875 10.84375 -7.28125q4.6875 -4.609375 7.34375 -10.75q2.671875 -6.140625 2.671875 -13.28125l0 -132.875zm242.11696 132.875q0 14.90625 -5.625 28.0q-5.609375 13.078125 -15.421875 22.890625q-9.8125 9.796875 -22.984375 15.421875q-13.171875 5.625 -28.078125 5.625l-90.531265 0l0 -276.9375l90.531265 0q14.90625 0 28.078125 5.625q13.171875 5.625 22.984375 15.4375q9.828125 9.8125 15.4375 23.0q5.609375 13.171875 5.609375 28.0625l0 2.546875q0 10.40625 -2.765625 19.9375q-2.765625 9.515625 -7.875 17.671875q-5.09375 8.15625 -12.03125 14.796875q-6.9375 6.640625 -9.421875 4.28125q2.484375 -2.359375 9.4375 4.296875q6.953125 6.640625 12.03125 14.90625q5.09375 8.25 7.859375 17.765625q2.765625 9.5 2.765625 19.90625l0 16.765625l0 0zm-39.046875 -20.59375q0 -7.140625 -2.671875 -13.265625q-2.65625 -6.140625 -7.34375 -10.75q-4.6875 -4.625 -10.84375 -7.296875q-6.15625 -2.671875 -13.296875 -2.671875l-50.39064 0l0 88.5625l50.39064 0q7.140625 0 13.296875 -2.671875q6.15625 -2.671875 10.84375 -7.28125q4.6875 -4.609375 7.34375 -10.75q2.671875 -6.140625 2.671875 -13.28125l0 -20.59375zm0 -112.28125q0 -7.140625 -2.671875 -13.296875q-2.65625 -6.15625 -7.359375 -10.84375q-4.703125 -4.703125 -10.84375 -7.359375q-6.140625 -2.671875 -13.28125 -2.671875l-50.39064 0l0 74.515625l50.39064 0q7.140625 0 13.28125 -2.65625q6.140625 -2.671875 10.84375 -7.375q4.703125 -4.703125 7.359375 -10.84375q2.671875 -6.140625 2.671875 -13.28125l0 -6.1875z" fill-rule="nonzero"/><path fill="#3c78d8" d="m70.83727 238.5255l0 0c0 -15.46138 12.533928 -27.995316 27.995308 -27.995316l253.23773 0c7.4248047 0 14.545532 2.9494934 19.795654 8.199646c5.2501526 5.2501373 8.199646 12.37085 8.199646 19.79567l0 111.97789c0 15.461365 -12.533936 27.9953 -27.9953 27.9953l-253.23773 0c-15.46138 0 -27.995308 -12.533936 -27.995308 -27.9953z" fill-rule="evenodd"/><path fill="#ffffff" d="m165.26372 314.57193q0 8.0625 -4.0625 15.28125q-4.0625 7.203125 -12.625 11.671875q-8.5625 4.46875 -22.109375 4.46875q-6.765625 0 -11.875 -0.609375q-5.109375 -0.609375 -9.515625 -2.0q-4.40625 -1.390625 -9.140625 -3.625l0 -23.828125q8.0625 4.0625 16.25 6.203125q8.1875 2.125 14.828125 2.125q3.984375 0 6.515625 -0.953125q2.546875 -0.953125 3.765625 -2.609375q1.21875 -1.65625 1.21875 -3.828125q0 -2.5625 -1.796875 -4.359375q-1.78125 -1.796875 -5.71875 -3.75q-3.921875 -1.96875 -10.34375 -4.875q-5.484375 -2.578125 -9.921875 -5.28125q-4.4375 -2.71875 -7.59375 -6.203125q-3.140625 -3.484375 -4.84375 -8.15625q-1.6875 -4.671875 -1.6875 -11.03125q0 -9.546875 4.703125 -16.015625q4.71875 -6.46875 13.140625 -9.71875q8.4375 -3.25 19.46875 -3.25q9.671875 0 17.421875 2.171875q7.765625 2.15625 13.921875 4.9375l-8.1875 20.65625q-6.375 -2.921875 -12.53125 -4.640625q-6.15625 -1.734375 -11.4375 -1.734375q-3.453125 0 -5.65625 0.859375q-2.203125 0.84375 -3.25 2.265625q-1.046875 1.421875 -1.046875 3.25q0 2.296875 1.78125 4.125q1.796875 1.828125 6.03125 3.96875q4.234375 2.125 11.546875 5.515625q7.25 3.25 12.328125 7.015625q5.078125 3.75 7.75 9.0q2.671875 5.234375 2.671875 12.953125zm107.91585 -19.5625q0 10.296875 -2.203125 19.0625q-2.1875 8.765625 -6.90625 15.4375q-4.703125 6.65625 -12.281235 10.859375l24.17186 27.828125l-33.312485 0l-16.65625 -22.203125q-0.0625 0 -0.4375 0q-0.375 0 -0.515625 0q-12.453125 0 -21.5625 -3.625q-9.09375 -3.625 -14.984375 -10.359375q-5.890625 -6.734375 -8.734375 -16.140625q-2.84375 -9.421875 -2.84375 -21.0q0 -15.4375 5.109375 -26.84375q5.109375 -11.40625 15.796875 -17.671875q10.703125 -6.265625 27.359375 -6.265625q16.921875 0 27.515625 6.296875q10.60936 6.296875 15.54686 17.75q4.9375 11.4375 4.9375 26.875zm-68.10936 0q0 8.9375 2.03125 15.375q2.03125 6.421875 6.421875 9.875q4.40625 3.453125 11.515625 3.453125q7.390625 0 11.75 -3.453125q4.375 -3.453125 6.296875 -9.875q1.9375 -6.4375 1.9375 -15.375q0 -13.40625 -4.46875 -21.1875q-4.46875 -7.796875 -15.375 -7.796875q-7.25 0 -11.6875 3.53125q-4.421875 3.515625 -6.421875 10.015625q-2.0 6.5 -2.0 15.4375zm85.991684 49.625l0 -98.984375l26.734375 0l0 77.390625l38.125 0l0 21.59375l-64.859375 0z" fill-rule="nonzero"/></g></svg>