<svg version="1.1" viewBox="0.0 0.0 384.0 384.0" fill="none" stroke="none" stroke-linecap="square" stroke-miterlimit="10" xmlns:xlink="http://www.w3.org/1999/xlink" xmlns="http://www.w3.org/2000/svg"><clipPath id="g11b3c3a78aa_1_0.0"><path d="m0 0l384.0 0l0 384.0l-384.0 0l0 -384.0z" clip-rule="nonzero"/></clipPath><g clip-path="url(#g11b3c3a78aa_1_0.0)"><path fill="#000000" fill-opacity="0.0" d="m0 0l384.0 0l0 384.0l-384.0 0z" fill-rule="evenodd"/><path fill="#4a86e8" d="m0 63.082626l0 0c0 -34.839573 28.243053 -63.082626 63.082626 -63.082626l257.83472 0l0 0c16.73056 0 32.77588 6.6461864 44.60617 18.476473c11.830292 11.830288 18.47647 27.8756 18.47647 44.606155l0 252.32292c0 34.8396 -28.243042 63.08264 -63.08264 63.08264l-257.83472 0c-34.839573 0 -63.082626 -28.243042 -63.082626 -63.08264z" fill-rule="evenodd"/><path fill="#ffffff" d="m0.35170603 54.503937l383.65353 0l0 268.37796l-383.65353 0z" fill-rule="evenodd"/><path fill="#595959" d="m133.17651 231.5373q0 7.703125 -3.125 14.453125q-3.1093674 6.75 -8.328117 11.8125q-5.21875 5.0625 -12.125 7.96875q-6.90625 2.890625 -14.609375 2.890625l-10.859375 0q-7.703125 0 -14.609375 -2.890625q-6.90625 -2.90625 -12.125 -7.96875q-5.21875 -5.0625 -8.34375 -11.8125q-3.109375 -6.75 -3.109375 -14.453125l0 -6.015625l13.609375 -2.21875l0 8.234375q0 5.0625 2.046875 9.4375q2.0625 4.375 5.546875 7.703125q3.484375 3.3125 8.0625 5.21875q4.59375 1.890625 9.65625 1.890625l9.5 0q5.0625 0 9.59375 -1.890625q4.53125 -1.90625 8.015625 -5.21875q3.484375 -3.328125 5.53125 -7.703125q2.0625 -4.375 2.0625 -9.4375l0 -4.53125q0 -7.8125 -3.0625 -12.96875q-3.0625 -5.171875 -8.125 -8.8125q-5.0625 -3.640625 -11.4375 -6.171875q-6.375 -2.53125 -13.125 -5.0625q-6.75 -2.53125 -13.140625 -5.59375q-6.375 -3.0625 -11.4375 -7.640625q-5.0625 -4.59375 -8.125 -11.234375q-3.0625 -6.640625 -3.0625 -16.34375l0 -2.859375q0 -7.6875 2.90625 -14.4375q2.90625 -6.75 7.96875 -11.8125q5.0625 -5.0625 11.859375 -7.96875q6.796875 -2.90625 14.5 -2.90625l9.703125 0q7.703125 0 14.453125 2.90625q6.75 2.90625 11.8125 7.96875q5.0625 5.0625 7.9531174 11.8125q2.90625 6.75 2.90625 14.4375l0 3.90625l-13.609367 2.21875l0 -6.125q0 -5.0625 -1.90625 -9.4375q-1.890625 -4.375 -5.15625 -7.640625q-3.265625 -3.265625 -7.640625 -5.15625q-4.375 -1.90625 -9.4375 -1.90625l-8.4375 0q-5.0625 0 -9.453125 1.90625q-4.375 1.890625 -7.703125 5.15625q-3.3125 3.265625 -5.21875 7.640625q-1.890625 4.375 -1.890625 9.4375l0 2.859375q0 7.265625 3.0625 12.234375q3.0625 4.953125 8.125 8.484375q5.0625 3.53125 11.4375 6.125q6.375 2.578125 13.125 5.265625q6.75 2.6875 13.125 5.90625q6.390625 3.21875 11.453125 7.921875q5.0625 4.6875 8.124992 11.4375q3.0625 6.75 3.0625 16.453125l0 4.53125zm112.11328 0q0 7.375 -2.640625 13.921875q-2.640625 6.53125 -7.28125 11.5q-4.640625 4.953125 -10.921875 8.0625q-6.265625 3.109375 -13.4375 3.640625l13.8125 31.109375l-13.609375 0l-13.8125 -31.109375q-7.703125 0 -14.5 -2.890625q-6.796875 -2.90625 -11.859375 -7.96875q-5.0625 -5.0625 -7.96875 -11.8125q-2.90625 -6.75 -2.90625 -14.453125l0 -81.21875q0 -7.6875 2.90625 -14.4375q2.90625 -6.75 7.96875 -11.8125q5.0625 -5.0625 11.859375 -7.96875q6.796875 -2.90625 14.5 -2.90625l10.765625 0q7.6875 0 14.4375 2.90625q6.75 2.90625 11.8125 7.96875q5.0625 5.0625 7.96875 11.8125q2.90625 6.75 2.90625 14.4375l0 81.21875l0 0zm-13.609375 -81.21875q0 -5.0625 -1.90625 -9.4375q-1.890625 -4.375 -5.171875 -7.640625q-3.265625 -3.265625 -7.640625 -5.15625q-4.375 -1.90625 -9.4375 -1.90625l-9.484375 0q-5.0625 0 -9.453125 1.90625q-4.375 1.890625 -7.703125 5.15625q-3.3125 3.265625 -5.21875 7.640625q-1.890625 4.375 -1.890625 9.4375l0 81.21875q0 5.0625 1.890625 9.4375q1.90625 4.375 5.21875 7.703125q3.328125 3.3125 7.703125 5.21875q4.390625 1.890625 9.453125 1.890625l9.484375 0q5.0625 0 9.4375 -1.890625q4.375 -1.90625 7.640625 -5.21875q3.28125 -3.328125 5.171875 -7.703125q1.90625 -4.375 1.90625 -9.4375l0 -81.21875zm43.867218 116.234375l0 -151.25l13.609375 0l0 138.28125l57.90625 0l0 12.96875l-71.515625 0z" fill-rule="nonzero"/></g></svg>