<svg version="1.1" viewBox="0.0 0.0 384.0 384.0" fill="none" stroke="none" stroke-linecap="square" stroke-miterlimit="10" xmlns:xlink="http://www.w3.org/1999/xlink" xmlns="http://www.w3.org/2000/svg"><clipPath id="g124fa6cf9d6_0_0.0"><path d="m0 0l384.0 0l0 384.0l-384.0 0l0 -384.0z" clip-rule="nonzero"/></clipPath><g clip-path="url(#g124fa6cf9d6_0_0.0)"><path fill="#000000" fill-opacity="0.0" d="m0 0l384.0 0l0 384.0l-384.0 0z" fill-rule="evenodd"/><path fill="#000000" fill-opacity="0.0" d="m-74.47792 -16.0l502.3307 0l0 407.24408l-502.3307 0z" fill-rule="evenodd"/><path fill="#595959" d="m65.212845 322.02203l0 -276.9375l39.046875 0l0 276.9375l-39.046875 0zm242.11864 -68.28125q0 14.890625 -5.625 27.984375q-5.609375 13.09375 -15.421875 22.90625q-9.796875 9.796875 -22.890625 15.421875q-13.093765 5.609375 -27.98439 5.609375l-18.59375 0q-14.890625 0 -28.078125 -5.609375q-13.17186 -5.609375 -22.98436 -15.421875q-9.8125 -9.8125 -15.4375 -22.90625q-5.625 -13.09375 -5.625 -27.984375l0 -140.35938q0 -14.90625 5.625 -27.984375q5.625 -13.09375 15.4375 -22.890625q9.8125 -9.8125 22.98436 -15.4375q13.171875 -5.625 28.078125 -5.625l18.59375 0q14.890625 0 27.98439 5.625q13.09375 5.625 22.890625 15.4375q9.8125 9.796875 15.421875 22.890625q5.625 13.078125 5.625 27.984375l0 140.35938l0 0zm-39.046875 -140.35938q0 -7.140625 -2.671875 -13.296875q-2.65625 -6.15625 -7.265625 -10.75q-4.6093903 -4.609375 -10.750015 -7.265625q-6.140625 -2.671875 -13.28125 -2.671875l-16.40625 0q-7.140625 0 -13.3125 2.671875q-6.15625 2.671875 -10.84375 7.28125q-4.6875 4.609375 -7.359375 10.75q-2.65625 6.140625 -2.65625 13.28125l0 140.35938q0 7.140625 2.65625 13.28125q2.671875 6.140625 7.359375 10.84375q4.703125 4.703125 10.859375 7.375q6.15625 2.65625 13.296875 2.65625l16.40625 0q7.140625 0 13.265625 -2.65625q6.125 -2.65625 10.73439 -7.34375q4.625 -4.703125 7.296875 -10.859375q2.671875 -6.15625 2.671875 -13.296875l0 -140.35938z" fill-rule="nonzero"/><path fill="#ff9900" d="m0 238.5255l0 0c0 -15.46138 12.533928 -27.995316 27.99531 -27.995316l328.0094 0c7.4248047 0 14.545532 2.9494934 19.795654 8.199646c5.2501526 5.2501373 8.199646 12.37085 8.199646 19.79567l0 111.97789c0 15.461365 -12.533936 27.9953 -27.9953 27.9953l-328.0094 0c-15.461382 0 -27.99531 -12.533936 -27.99531 -27.9953z" fill-rule="evenodd"/><path fill="#ffffff" d="m132.08667 344.63443l-20.249992 -71.296875l-0.609375 0q0.28125 2.78125 0.578125 7.53125q0.3125 4.734375 0.578125 10.21875q0.265625 5.484375 0.265625 10.5625l0 42.984375l-23.6875 0l0 -98.984375l35.609375 0l20.640617 70.28125l0.546875 0l20.25 -70.28125l35.671875 0l0 98.984375l-24.578125 0l0 -43.390625q0 -4.671875 0.171875 -10.046875q0.171875 -5.390625 0.40625 -10.15625q0.234375 -4.78125 0.4375 -7.5625l-0.609375 0l-19.96875 71.15625l-25.453125 0zm90.92743 -98.984375l34.515625 0q21.46878 0 30.609406 6.375q9.140625 6.359375 9.140625 18.265625q0 6.5 -2.34375 11.046875q-2.328125 4.53125 -5.890625 7.171875q-3.546875 2.640625 -7.265625 3.59375l0 0.671875q4.0625 1.015625 8.078125 3.359375q4.03125 2.328125 6.703125 6.96875q2.6875 4.640625 2.6875 12.546875q0 9.015625 -4.578125 15.515625q-4.5625 6.5 -13.03125 9.984375q-8.46875 3.484375 -20.109406 3.484375l-38.515625 0l0 -98.984375zm26.734375 37.984375l8.0625 0q6.6250305 0 9.3281555 -2.734375q2.71875 -2.75 2.71875 -6.671875q0 -4.0625 -3.078125 -6.1875q-3.0781555 -2.140625 -9.5156555 -2.140625l-7.515625 0l0 17.734375zm0 19.5625l0 20.78125l9.40625 0q6.9844055 0 9.7500305 -3.0q2.78125 -3.015625 2.78125 -7.5625q0 -2.640625 -1.1875 -4.96875q-1.1875 -2.328125 -4.03125 -3.78125q-2.8437805 -1.46875 -7.8437805 -1.46875l-8.875 0z" fill-rule="nonzero"/></g></svg>