<svg version="1.1" viewBox="0.0 0.0 384.0 384.0" fill="none" stroke="none" stroke-linecap="square" stroke-miterlimit="10" xmlns:xlink="http://www.w3.org/1999/xlink" xmlns="http://www.w3.org/2000/svg"><clipPath id="g11b3c3a78aa_0_6.0"><path d="m0 0l384.0 0l0 384.0l-384.0 0l0 -384.0z" clip-rule="nonzero"/></clipPath><g clip-path="url(#g11b3c3a78aa_0_6.0)"><path fill="#000000" fill-opacity="0.0" d="m0 0l384.0 0l0 384.0l-384.0 0z" fill-rule="evenodd"/><path fill="#ffab40" d="m0 63.082626l0 0c0 -34.839573 28.243053 -63.082626 63.082626 -63.082626l257.83472 0l0 0c16.73056 0 32.77588 6.6461864 44.60617 18.476473c11.830292 11.830288 18.47647 27.8756 18.47647 44.606155l0 252.32292c0 34.8396 -28.243042 63.08264 -63.08264 63.08264l-257.83472 0c-34.839573 0 -63.082626 -28.243042 -63.082626 -63.08264z" fill-rule="evenodd"/><path fill="#ffffff" d="m0.35170603 54.503937l383.65353 0l0 268.37796l-383.65353 0z" fill-rule="evenodd"/><path fill="#595959" d="m127.68433 266.55292l0 -151.25l13.609367 0l0 151.25l-13.609367 0zm131.1055 -35.015625q0 7.703125 -2.9062805 14.453125q-2.90625 6.75 -7.96875 11.8125q-5.0625 5.0625 -11.8125 7.96875q-6.75 2.890625 -14.4375 2.890625l-10.765625 0q-7.703125 0 -14.5 -2.890625q-6.796875 -2.90625 -11.859375 -7.96875q-5.0625 -5.0625 -7.96875 -11.8125q-2.90625 -6.75 -2.90625 -14.453125l0 -81.21875q0 -7.6875 2.90625 -14.4375q2.90625 -6.75 7.96875 -11.8125q5.0625 -5.0625 11.859375 -7.96875q6.796875 -2.90625 14.5 -2.90625l10.765625 0q7.6875 0 14.4375 2.90625q6.75 2.90625 11.8125 7.96875q5.0625 5.0625 7.96875 11.8125q2.9062805 6.75 2.9062805 14.4375l0 81.21875l0 0zm-13.6094055 -81.21875q0 -5.0625 -1.90625 -9.4375q-1.890625 -4.375 -5.171875 -7.640625q-3.265625 -3.265625 -7.640625 -5.15625q-4.375 -1.90625 -9.4375 -1.90625l-9.484375 0q-5.0625 0 -9.453125 1.90625q-4.375 1.890625 -7.703125 5.15625q-3.3125 3.265625 -5.21875 7.640625q-1.890625 4.375 -1.890625 9.4375l0 81.21875q0 5.0625 1.890625 9.4375q1.90625 4.375 5.21875 7.703125q3.328125 3.3125 7.703125 5.21875q4.390625 1.890625 9.453125 1.890625l9.484375 0q5.0625 0 9.4375 -1.890625q4.375 -1.90625 7.640625 -5.21875q3.28125 -3.328125 5.171875 -7.703125q1.90625 -4.375 1.90625 -9.4375l0 -81.21875z" fill-rule="nonzero"/></g></svg>