<svg version="1.1" viewBox="0.0 0.0 384.0 384.0" fill="none" stroke="none" stroke-linecap="square" stroke-miterlimit="10" xmlns:xlink="http://www.w3.org/1999/xlink" xmlns="http://www.w3.org/2000/svg"><clipPath id="g125200bf7db_0_0.0"><path d="m0 0l384.0 0l0 384.0l-384.0 0l0 -384.0z" clip-rule="nonzero"/></clipPath><g clip-path="url(#g125200bf7db_0_0.0)"><path fill="#000000" fill-opacity="0.0" d="m0 0l384.0 0l0 384.0l-384.0 0z" fill-rule="evenodd"/><path fill="#000000" fill-opacity="0.0" d="m-63.255997 -16.0l502.3307 0l0 407.24408l-502.3307 0z" fill-rule="evenodd"/><path fill="#595959" d="m51.006073 322.02203l-47.390625 0l0 -261.40625l47.390625 0l0 261.40625zm329.76938 -105.734375q0 23.890625 -8.203125 43.9375q-8.203125 20.046875 -22.796875 34.640625q-14.578125 14.578125 -34.546875 22.6875q-19.953125 8.109375 -43.46875 8.109375l-64.156235 0q-23.515625 0 -43.578125 -8.109375q-20.046875 -8.109375 -34.640625 -22.6875q-14.578125 -14.59375 -22.875 -34.640625q-8.28125 -20.046875 -8.28125 -43.9375l0 -49.9375q0 -23.703125 8.28125 -43.84375q8.296875 -20.140625 22.875 -34.625q14.59375 -14.5 34.640625 -22.703125q20.0625 -8.203125 43.578125 -8.203125l64.156235 0q23.515625 0 43.46875 8.203125q19.96875 8.203125 34.546875 22.703125q14.59375 14.484375 22.796875 34.625q8.203125 20.140625 8.203125 43.84375l0 49.9375zm-47.40625 -49.9375q0 -14.046875 -4.46875 -25.4375q-4.453125 -11.390625 -12.578125 -19.5q-8.109375 -8.109375 -19.5 -12.578125q-11.390625 -4.46875 -25.0625 -4.46875l-64.156235 0q-13.859375 0 -25.25 4.46875q-11.390625 4.46875 -19.59375 12.578125q-8.203125 8.109375 -12.671875 19.5q-4.46875 11.390625 -4.46875 25.4375l0 49.9375q0 14.046875 4.46875 25.4375q4.46875 11.390625 12.671875 19.5q8.203125 8.109375 19.59375 12.578125q11.390625 4.46875 25.25 4.46875l63.79686 0q13.84375 0 25.234375 -4.46875q11.40625 -4.46875 19.609375 -12.578125q8.203125 -8.109375 12.65625 -19.5q4.46875 -11.390625 4.46875 -25.4375l0 -49.9375z" fill-rule="nonzero"/><path fill="#ff9900" d="m116.698166 238.5255l0 0c0 -15.46138 12.53392 -27.995316 27.9953 -27.995316l207.37947 0c7.4248047 0 14.545532 2.9494934 19.795654 8.199646c5.2501526 5.2501373 8.199646 12.37085 8.199646 19.79567l0 111.97789c0 15.461365 -12.533936 27.9953 -27.9953 27.9953l-207.37947 0c-15.46138 0 -27.9953 -12.533936 -27.9953 -27.9953z" fill-rule="evenodd"/><path fill="#ffffff" d="m188.46988 344.63443l-20.25 -71.296875l-0.609375 0q0.28125 2.78125 0.578125 7.53125q0.3125 4.734375 0.578125 10.21875q0.265625 5.484375 0.265625 10.5625l0 42.984375l-23.6875 0l0 -98.984375l35.609375 0l20.640625 70.28125l0.546875 0l20.25 -70.28125l35.671875 0l0 98.984375l-24.578125 0l0 -43.390625q0 -4.671875 0.171875 -10.046875q0.171875 -5.390625 0.40625 -10.15625q0.234375 -4.78125 0.4375 -7.5625l-0.609375 0l-19.96875 71.15625l-25.453125 0zm90.92743 -98.984375l34.515625 0q21.46875 0 30.609375 6.375q9.140625 6.359375 9.140625 18.265625q0 6.5 -2.34375 11.046875q-2.328125 4.53125 -5.890625 7.171875q-3.546875 2.640625 -7.265625 3.59375l0 0.671875q4.0625 1.015625 8.078125 3.359375q4.03125 2.328125 6.703125 6.96875q2.6875 4.640625 2.6875 12.546875q0 9.015625 -4.578125 15.515625q-4.5625 6.5 -13.03125 9.984375q-8.46875 3.484375 -20.109375 3.484375l-38.515625 0l0 -98.984375zm26.734375 37.984375l8.0625 0q6.625 0 9.328125 -2.734375q2.71875 -2.75 2.71875 -6.671875q0 -4.0625 -3.078125 -6.1875q-3.078125 -2.140625 -9.515625 -2.140625l-7.515625 0l0 17.734375zm0 19.5625l0 20.78125l9.40625 0q6.984375 0 9.75 -3.0q2.78125 -3.015625 2.78125 -7.5625q0 -2.640625 -1.1875 -4.96875q-1.1875 -2.328125 -4.03125 -3.78125q-2.84375 -1.46875 -7.84375 -1.46875l-8.875 0z" fill-rule="nonzero"/></g></svg>