<svg version="1.1" viewBox="0.0 0.0 384.0 384.0" fill="none" stroke="none" stroke-linecap="square" stroke-miterlimit="10" xmlns:xlink="http://www.w3.org/1999/xlink" xmlns="http://www.w3.org/2000/svg"><clipPath id="g5de321b3f4_0_96.0"><path d="m0 0l384.0 0l0 384.0l-384.0 0l0 -384.0z" clip-rule="nonzero"/></clipPath><g clip-path="url(#g5de321b3f4_0_96.0)"><path fill="#000000" fill-opacity="0.0" d="m0 0l384.0 0l0 384.0l-384.0 0z" fill-rule="evenodd"/><path fill="#000000" d="m38.3937 192.0l0 0c0 -84.86921 68.77188 -153.6693 153.6063 -153.6693l0 0c40.738922 0 79.809296 16.190113 108.61606 45.008694c28.806763 28.81858 44.990234 67.90497 44.990234 108.6606l0 0c0 84.8692 -68.77188 153.66928 -153.6063 153.66928l0 0c-84.83442 0 -153.6063 -68.80008 -153.6063 -153.66928z" fill-rule="evenodd"/><path fill="#999999" d="m75.20881 58.962383l0 0c0 -31.81508 25.791222 -57.6063 57.6063 -57.6063l0 0c15.278137 0 29.930527 6.0692177 40.73381 16.872494c10.803268 10.803276 16.872482 25.455664 16.872482 40.733803l0 0c0 31.815083 -25.791214 57.606297 -57.606293 57.606297l0 0c-31.815079 0 -57.6063 -25.791214 -57.6063 -57.606297z" fill-rule="evenodd"/><path fill="#999999" d="m240.38583 79.937004l0 0c0 -31.815075 25.791199 -57.606293 57.606293 -57.606293l0 0c15.278137 0 29.930542 6.0692177 40.733795 16.872492c10.803284 10.80328 16.872498 25.455666 16.872498 40.733803l0 0c0 31.815086 -25.791199 57.6063 -57.606293 57.6063l0 0c-31.815094 0 -57.606293 -25.791214 -57.606293 -57.6063z" fill-rule="evenodd"/><path fill="#999999" d="m267.563 220.00903l0 0c0 -31.815079 25.79123 -57.606293 57.606293 -57.606293l0 0c15.278137 0 29.930542 6.069214 40.733826 16.872498c10.803253 10.803268 16.872467 25.455658 16.872467 40.733795l0 0c0 31.815094 -25.791199 57.606293 -57.606293 57.606293l0 0c-31.815063 0 -57.606293 -25.791199 -57.606293 -57.606293z" fill-rule="evenodd"/><path fill="#999999" d="m184.30971 324.82007l0 0c0 -31.815094 25.79123 -57.606293 57.606308 -57.606293l0 0c15.278137 0 29.930511 6.069214 40.733795 16.872498c10.803284 10.803253 16.872498 25.455658 16.872498 40.733795l0 0c0 31.815063 -25.79123 57.606293 -57.606293 57.606293l0 0c-31.815079 0 -57.606308 -25.79123 -57.606308 -57.606293z" fill-rule="evenodd"/><path fill="#999999" d="m37.86188 312.12042l0 0c0 -31.815094 25.791222 -57.606308 57.606304 -57.606308l0 0c15.278137 0 29.930527 6.069229 40.733795 16.872482c10.803284 10.803284 16.872498 25.455688 16.872498 40.733826l0 0c0 31.815063 -25.791214 57.606293 -57.606293 57.606293l0 0c-31.815083 0 -57.606304 -25.79123 -57.606304 -57.606293z" fill-rule="evenodd"/><path fill="#999999" d="m1.3607507 172.7406l0 0c0 -31.815079 25.79122 -57.6063 57.606297 -57.6063l0 0c15.278145 0 29.930527 6.069214 40.733803 16.87249c10.803284 10.803284 16.872498 25.455658 16.872498 40.73381l0 0c0 31.815079 -25.791222 57.606293 -57.6063 57.606293l0 0c-31.815079 0 -57.606297 -25.791214 -57.606297 -57.606293z" fill-rule="evenodd"/><path fill="#000000" fill-opacity="0.0" d="m45.134907 172.15852l137.25984 19.84253" fill-rule="evenodd"/><path stroke="#666666" stroke-width="8.0" stroke-linejoin="round" stroke-linecap="butt" d="m72.26954 176.08116l82.99058 11.997253" fill-rule="evenodd"/><path fill="#666666" stroke="#666666" stroke-width="8.0" stroke-linecap="butt" d="m72.26954 176.08116l10.191299 -7.616928l-25.751034 5.367584l23.176647 12.440643z" fill-rule="evenodd"/><path fill="#666666" stroke="#666666" stroke-width="8.0" stroke-linecap="butt" d="m155.26012 188.07841l-10.191299 7.616913l25.751038 -5.367569l-23.176651 -12.440643z" fill-rule="evenodd"/><path fill="#000000" fill-opacity="0.0" d="m132.12703 50.23727l59.874023 132.15747" fill-rule="evenodd"/><path stroke="#666666" stroke-width="8.0" stroke-linejoin="round" stroke-linecap="butt" d="m143.4412 75.210556l37.245697 82.21091" fill-rule="evenodd"/><path fill="#666666" stroke="#666666" stroke-width="8.0" stroke-linecap="butt" d="m143.4412 75.210556l11.907562 4.4821777l-18.395416 -18.802536l2.005661 26.22792z" fill-rule="evenodd"/><path fill="#666666" stroke="#666666" stroke-width="8.0" stroke-linecap="butt" d="m180.68689 157.42146l-11.907562 -4.4821777l18.395401 18.802536l-2.005661 -26.22792z" fill-rule="evenodd"/><path fill="#000000" fill-opacity="0.0" d="m296.27405 77.52333l-97.480316 107.68504" fill-rule="evenodd"/><path stroke="#666666" stroke-width="8.0" stroke-linejoin="round" stroke-linecap="butt" d="m277.87454 97.849l-60.681274 67.03371" fill-rule="evenodd"/><path fill="#666666" stroke="#666666" stroke-width="8.0" stroke-linecap="butt" d="m277.87454 97.849l0.63204956 12.707504l9.918732 -24.362793l-23.2583 12.287346z" fill-rule="evenodd"/><path fill="#666666" stroke="#666666" stroke-width="8.0" stroke-linecap="butt" d="m217.19325 164.8827l-0.6320648 -12.707504l-9.918716 24.362793l23.258286 -12.2873535z" fill-rule="evenodd"/><path fill="#000000" fill-opacity="0.0" d="m338.1428 225.29239l-136.53545 -33.291336" fill-rule="evenodd"/><path stroke="#666666" stroke-width="8.0" stroke-linejoin="round" stroke-linecap="butt" d="m311.50647 218.79767l-83.2628 -20.30191" fill-rule="evenodd"/><path fill="#666666" stroke="#666666" stroke-width="8.0" stroke-linecap="butt" d="m311.50647 218.79767l-10.871826 6.609375l26.145813 -2.8851318l-21.883392 -14.596054z" fill-rule="evenodd"/><path fill="#666666" stroke="#666666" stroke-width="8.0" stroke-linecap="butt" d="m228.24367 198.49576l10.871811 -6.609375l-26.145798 2.8851318l21.883362 14.596054z" fill-rule="evenodd"/><path fill="#000000" fill-opacity="0.0" d="m246.03783 330.85672l-47.244095 -132.06299" fill-rule="evenodd"/><path stroke="#666666" stroke-width="8.0" stroke-linejoin="round" stroke-linecap="butt" d="m236.80295 305.04214l-28.774323 -80.43384" fill-rule="evenodd"/><path fill="#666666" stroke="#666666" stroke-width="8.0" stroke-linecap="butt" d="m236.80295 305.04218l-11.5013275 -5.4405823l16.79686 20.243347l0.14501953 -26.304108z" fill-rule="evenodd"/><path fill="#666666" stroke="#666666" stroke-width="8.0" stroke-linecap="butt" d="m208.02863 224.6083l11.501312 5.4405518l-16.796844 -20.243332l-0.14503479 26.304108z" fill-rule="evenodd"/><path fill="#000000" fill-opacity="0.0" d="m96.10601 310.82523l89.10236 -112.031494" fill-rule="evenodd"/><path stroke="#666666" stroke-width="8.0" stroke-linejoin="round" stroke-linecap="butt" d="m113.17196 289.36765l54.970467 -69.11632" fill-rule="evenodd"/><path fill="#666666" stroke="#666666" stroke-width="8.0" stroke-linecap="butt" d="m113.17195 289.36765l-1.4411011 -12.641357l-8.344971 24.94571l22.427406 -13.745483z" fill-rule="evenodd"/><path fill="#666666" stroke="#666666" stroke-width="8.0" stroke-linecap="butt" d="m168.14243 220.25134l1.4411163 12.641327l8.344971 -24.945694l-22.427414 13.745468z" fill-rule="evenodd"/></g></svg>