<svg version="1.1" viewBox="0.0 0.0 384.0 384.0" fill="none" stroke="none" stroke-linecap="square" stroke-miterlimit="10" xmlns:xlink="http://www.w3.org/1999/xlink" xmlns="http://www.w3.org/2000/svg"><clipPath id="g122aae67796_1_0.0"><path d="m0 0l384.0 0l0 384.0l-384.0 0l0 -384.0z" clip-rule="nonzero"/></clipPath><g clip-path="url(#g122aae67796_1_0.0)"><path fill="#000000" fill-opacity="0.0" d="m0 0l384.0 0l0 384.0l-384.0 0z" fill-rule="evenodd"/><path fill="#ff9900" d="m0 63.082626l0 0c0 -34.839573 28.243053 -63.082626 63.082626 -63.082626l257.83472 0l0 0c16.73056 0 32.77588 6.6461864 44.60617 18.476473c11.830292 11.830288 18.47647 27.8756 18.47647 44.606155l0 252.32292c0 34.8396 -28.243042 63.08264 -63.08264 63.08264l-257.83472 0c-34.839573 0 -63.082626 -28.243042 -63.082626 -63.08264z" fill-rule="evenodd"/><path fill="#ffffff" d="m0.35170603 54.503937l383.65353 0l0 268.37796l-383.65353 0z" fill-rule="evenodd"/><path fill="#595959" d="m135.11597 126.17792q-5.0625 0 -9.437492 1.90625q-4.375 1.890625 -7.640625 5.15625q-3.265625 3.265625 -5.171875 7.640625q-1.890625 4.375 -1.890625 9.4375l0 6.125l-13.609375 -2.21875l0 -3.90625q0 -7.6875 2.890625 -14.4375q2.90625 -6.75 7.96875 -11.8125q5.0625 -5.0625 11.8125 -7.96875q6.75 -2.90625 14.453117 -2.90625l6.4375 0q7.6875 0 14.484375 2.75q6.8125 2.734375 11.875 7.90625q5.0625 5.171875 7.953125 12.40625q2.90625 7.21875 2.90625 16.28125q0 8.96875 -2.6875 18.046875q-2.6875 9.0625 -7.0625 17.8125q-4.375 8.75 -10.015625 16.984375q-5.640625 8.21875 -11.546875 15.5q-13.828125 16.984375 -31.328117 32.703125l63.703117 0l0 12.96875l-85.10937 0l0 -10.765625q19.71875 -16.234375 35.218742 -33.640625q6.640625 -7.484375 12.96875 -15.921875q6.328125 -8.4375 11.28125 -17.34375q4.96875 -8.921875 7.96875 -18.140625q3.015625 -9.234375 3.015625 -18.203125q0 -6.640625 -2.015625 -11.59375q-2.0 -4.96875 -5.375 -8.234375q-3.375 -3.265625 -7.75 -4.890625q-4.375 -1.640625 -9.125 -1.640625l-5.171875 0zm106.734375 0q-5.0625 0 -9.4375 1.90625q-4.375 1.890625 -7.640625 5.15625q-3.265625 3.265625 -5.171875 7.640625q-1.890625 4.375 -1.890625 9.4375l0 6.125l-13.609375 -2.21875l0 -3.90625q0 -7.6875 2.890625 -14.4375q2.90625 -6.75 7.96875 -11.8125q5.0625 -5.0625 11.8125 -7.96875q6.75 -2.90625 14.453125 -2.90625l6.4375 0q7.6875 0 14.4844055 2.75q6.8125 2.734375 11.875 7.90625q5.0625 5.171875 7.953125 12.40625q2.90625 7.21875 2.90625 16.28125q0 8.96875 -2.6875 18.046875q-2.6875 9.0625 -7.0625 17.8125q-4.375 8.75 -10.015625 16.984375q-5.640625 8.21875 -11.5469055 15.5q-13.828125 16.984375 -31.328125 32.703125l63.703156 0l0 12.96875l-85.109406 0l0 -10.765625q19.71875 -16.234375 35.21875 -33.640625q6.640625 -7.484375 12.96875 -15.921875q6.328125 -8.4375 11.2812805 -17.34375q4.96875 -8.921875 7.96875 -18.140625q3.015625 -9.234375 3.015625 -18.203125q0 -6.640625 -2.015625 -11.59375q-2.0 -4.96875 -5.375 -8.234375q-3.375 -3.265625 -7.7500305 -4.890625q-4.375 -1.640625 -9.125 -1.640625l-5.171875 0z" fill-rule="nonzero"/></g></svg>