<svg version="1.1" viewBox="0.0 0.0 384.0 384.0" fill="none" stroke="none" stroke-linecap="square" stroke-miterlimit="10" xmlns:xlink="http://www.w3.org/1999/xlink" xmlns="http://www.w3.org/2000/svg"><clipPath id="g12248cd325a_0_0.0"><path d="m0 0l384.0 0l0 384.0l-384.0 0l0 -384.0z" clip-rule="nonzero"/></clipPath><g clip-path="url(#g12248cd325a_0_0.0)"><path fill="#000000" fill-opacity="0.0" d="m0 0l384.0 0l0 384.0l-384.0 0z" fill-rule="evenodd"/><path fill="#6aa84f" d="m0 63.082626l0 0c0 -34.839573 28.243053 -63.082626 63.082626 -63.082626l257.83472 0l0 0c16.73056 0 32.77588 6.6461864 44.60617 18.476473c11.830292 11.830288 18.47647 27.8756 18.47647 44.606155l0 252.32292c0 34.8396 -28.243042 63.08264 -63.08264 63.08264l-257.83472 0c-34.839573 0 -63.082626 -28.243042 -63.082626 -63.08264z" fill-rule="evenodd"/><path fill="#ffffff" d="m0.35170603 54.503937l383.65353 0l0 268.37796l-383.65353 0z" fill-rule="evenodd"/><path fill="#595959" d="m210.59058 231.5373q0 7.703125 -2.90625 14.453125q-2.90625 6.75 -7.96875 11.8125q-5.0625 5.0625 -11.8125 7.96875q-6.75 2.890625 -14.4375 2.890625l-10.765625 0q-7.703125 0 -14.5 -2.890625q-6.796875 -2.90625 -11.859375 -7.96875q-5.0625 -5.0625 -7.96875 -11.8125q-2.9062424 -6.75 -2.9062424 -14.453125l0 -116.234375l13.609367 0l0 116.234375q0 5.0625 1.890625 9.4375q1.90625 4.375 5.21875 7.703125q3.328125 3.3125 7.703125 5.21875q4.390625 1.890625 9.453125 1.890625l9.484375 0q5.0625 0 9.4375 -1.890625q4.375 -1.90625 7.640625 -5.21875q3.28125 -3.328125 5.171875 -7.703125q1.90625 -4.375 1.90625 -9.4375l0 -116.234375l13.609375 0l0 116.234375l0 0zm32.476562 35.015625l0 -151.25l13.6094055 0l0 151.25l-13.6094055 0z" fill-rule="nonzero"/></g></svg>