<svg version="1.1" viewBox="0.0 0.0 384.0 384.0" fill="none" stroke="none" stroke-linecap="square" stroke-miterlimit="10" xmlns:xlink="http://www.w3.org/1999/xlink" xmlns="http://www.w3.org/2000/svg"><clipPath id="g5de321b3f4_0_96.0"><path d="m0 0l384.0 0l0 384.0l-384.0 0l0 -384.0z" clip-rule="nonzero"/></clipPath><g clip-path="url(#g5de321b3f4_0_96.0)"><path fill="#000000" fill-opacity="0.0" d="m0 0l384.0 0l0 384.0l-384.0 0z" fill-rule="evenodd"/><path fill="#cc0000" d="m3.1465886 3.0596724l189.1181 378.23624l189.11812 -378.23624z" fill-rule="evenodd"/><path stroke="#ffffff" stroke-width="4.0" stroke-linejoin="round" stroke-linecap="butt" d="m3.1465886 3.0596724l189.1181 378.23624l189.11812 -378.23624z" fill-rule="evenodd"/><path fill="#6aa84f" d="m3.1465886 2.8497806l94.566925 189.13387l94.566925 -189.13387z" fill-rule="evenodd"/><path stroke="#ffffff" stroke-width="4.0" stroke-linejoin="round" stroke-linecap="butt" d="m3.1465886 2.8497806l94.566925 189.13387l94.566925 -189.13387z" fill-rule="evenodd"/><path fill="#3c78d8" d="m192.49046 2.8497806l94.56694 189.13387l94.566925 -189.13387z" fill-rule="evenodd"/><path stroke="#ffffff" stroke-width="4.0" stroke-linejoin="round" stroke-linecap="butt" d="m192.49046 2.8497806l94.56694 189.13387l94.566925 -189.13387z" fill-rule="evenodd"/><path fill="#e69138" d="m97.6288 191.81421l94.566925 189.13385l94.56694 -189.13385z" fill-rule="evenodd"/><path stroke="#ffffff" stroke-width="4.0" stroke-linejoin="round" stroke-linecap="butt" d="m97.6288 191.81421l94.566925 189.13385l94.56694 -189.13385z" fill-rule="evenodd"/></g></svg>