<svg version="1.1" viewBox="0.0 0.0 1536.0 384.0" fill="none" stroke="none" stroke-linecap="square" stroke-miterlimit="10" xmlns:xlink="http://www.w3.org/1999/xlink" xmlns="http://www.w3.org/2000/svg"><clipPath id="g12d1b2b7322_0_0.0"><path d="m0 0l1536.0 0l0 384.0l-1536.0 0l0 -384.0z" clip-rule="nonzero"/></clipPath><g clip-path="url(#g12d1b2b7322_0_0.0)"><path fill="#000000" fill-opacity="0.0" d="m0 0l1536.0 0l0 384.0l-1536.0 0z" fill-rule="evenodd"/><path fill="#000000" fill-opacity="0.0" d="m0.005249344 0l1536.0 0l0 245.95276l-1536.0 0z" fill-rule="evenodd"/><path fill="#434343" d="m493.60388 26.18576q5.578125 0 9.828125 3.234375q4.265625 3.21875 5.71875 8.5l58.671875 190.65625l-45.765625 0l-41.359375 -148.71875q-1.171875 -4.984375 -2.34375 -10.109375q-1.171875 -5.140625 -2.046875 -9.828125l-7.921875 0q-0.875 4.6875 -1.90625 9.828125q-1.03125 5.125 -2.5 10.109375l-41.359375 148.71875l-46.046875 0l58.953125 -190.65625q1.46875 -5.28125 5.71875 -8.5q4.265625 -3.234375 9.828125 -3.234375l42.53125 0zm31.09375 115.265625l0 33.734375l-105.0 0l0 -33.734375l105.0 0zm113.53027 -97.96875l0 138.75q0 7.921875 3.65625 11.296875q3.671875 3.375 12.171875 3.375l18.78125 0l4.6875 29.328125q-5.28125 1.75 -12.90625 3.0625q-7.625 1.328125 -15.25 2.0625q-7.625 0.734375 -12.90625 0.734375q-19.65625 0 -30.65625 -10.546875q-11.0 -10.5625 -11.0 -29.640625l-0.296875 -148.42188l43.71875 0zm40.46875 40.1875l0 28.453125l-109.40625 0l0 -26.984375l28.15625 -1.46875l81.25 0zm124.07703 -3.8125q41.078125 0 41.078125 40.1875l0 108.53125l-43.71875 0l0 -95.03125q0 -9.6875 -3.375 -13.34375q-3.359375 -3.671875 -11.875 -3.671875q-9.390625 0 -19.359375 3.515625q-9.96875 3.515625 -24.640625 11.4375l-3.8125 -22.578125q16.140625 -14.078125 32.859375 -21.5625q16.71875 -7.484375 32.84375 -7.484375zm-57.484375 -56.609375l0.296875 50.15625q0 11.4375 -1.328125 21.703125q-1.3125 10.265625 -3.078125 17.3125l4.109375 3.8125l0 112.34375l-43.421875 0l0 -205.32812l43.421875 0zm209.43079 56.609375q18.1875 0 30.796875 4.84375q12.625 4.84375 19.21875 16.4375q6.59375 11.578125 6.59375 31.8125l0 95.625l-34.609375 0l-6.15625 -31.390625l-2.9375 -4.390625l0 -60.140625q0 -10.265625 -4.84375 -14.953125q-4.828125 -4.703125 -18.328125 -4.703125q-11.140625 0 -27.859375 0.734375q-16.71875 0.734375 -34.328125 1.90625l-4.109375 -28.734375q10.5625 -2.0625 24.34375 -3.515625q13.796875 -1.46875 27.578125 -2.5q13.796875 -1.03125 24.640625 -1.03125zm38.71875 59.546875l-0.296875 24.34375l-64.53125 0.296875q-7.921875 0 -11.296875 3.8125q-3.359375 3.8125 -3.359375 10.265625l0 7.046875q0 7.328125 4.09375 11.296875q4.109375 3.953125 13.203125 3.953125q7.625 0 16.578125 -3.21875q8.953125 -3.234375 17.75 -9.09375q8.796875 -5.875 15.546875 -13.796875l0 18.765625q-2.640625 4.40625 -7.78125 11.015625q-5.125 6.59375 -13.046875 12.90625q-7.921875 6.296875 -18.484375 10.703125q-10.5625 4.390625 -24.046875 4.390625q-13.203125 0 -23.765625 -4.6875q-10.5625 -4.6875 -16.71875 -13.78125q-6.15625 -9.09375 -6.15625 -22.59375l0 -14.953125q0 -17.3125 11.734375 -26.984375q11.734375 -9.6875 32.265625 -9.6875l78.3125 0zm107.07202 -59.546875q10.5625 0 22.875 0.734375q12.3125 0.734375 24.046875 1.90625q11.734375 1.171875 20.828125 2.9375l-2.921875 26.984375q-14.09375 -0.296875 -28.328125 -0.4375q-14.21875 -0.15625 -27.703125 -0.15625q-11.4375 -0.28125 -17.609375 0.3125q-6.15625 0.578125 -8.65625 2.78125q-2.484375 2.1875 -2.484375 7.765625q0 6.453125 4.390625 8.65625q4.40625 2.203125 14.671875 4.84375l37.84375 9.078125q18.1875 4.703125 26.984375 13.953125q8.796875 9.234375 8.796875 27.703125q0 18.1875 -6.75 27.875q-6.734375 9.671875 -21.40625 13.34375q-14.65625 3.671875 -37.84375 3.671875q-9.078125 0 -26.984375 -0.890625q-17.890625 -0.875 -39.296875 -4.390625l2.9375 -27.0q5.265625 0.296875 13.484375 0.453125q8.21875 0.140625 17.890625 0.140625q9.6875 0 19.359375 0q14.96875 0 22.875 -0.734375q7.921875 -0.734375 10.859375 -3.375q2.9375 -2.640625 2.9375 -7.921875q0 -6.453125 -4.984375 -8.796875q-4.984375 -2.34375 -15.84375 -4.984375l-36.671875 -9.09375q-13.78125 -3.8125 -21.40625 -9.671875q-7.625 -5.875 -10.703125 -14.375q-3.078125 -8.515625 -3.078125 -20.25q0 -14.953125 6.0 -23.890625q6.015625 -8.953125 19.65625 -13.0625q13.640625 -4.109375 36.234375 -4.109375zm201.5072 0q41.078125 0 41.078125 40.1875l0 108.53125l-43.71875 0l0 -95.03125q0 -9.6875 -3.375 -13.34375q-3.359375 -3.671875 -11.875 -3.671875q-9.390625 0 -19.359375 3.515625q-9.96875 3.515625 -24.640625 11.4375l-3.8125 -22.578125q16.140625 -14.078125 32.859375 -21.5625q16.71875 -7.484375 32.84375 -7.484375zm-57.484375 -56.609375l0.296875 50.15625q0 11.4375 -1.328125 21.703125q-1.3125 10.265625 -3.078125 17.3125l4.109375 3.8125l0 112.34375l-43.421875 0l0 -205.32812l43.421875 0zm209.43079 56.609375q18.1875 0 30.796875 4.84375q12.625 4.84375 19.21875 16.4375q6.59375 11.578125 6.59375 31.8125l0 95.625l-34.609375 0l-6.15625 -31.390625l-2.9375 -4.390625l0 -60.140625q0 -10.265625 -4.84375 -14.953125q-4.828125 -4.703125 -18.328125 -4.703125q-11.140625 0 -27.859375 0.734375q-16.71875 0.734375 -34.328125 1.90625l-4.109375 -28.734375q10.5625 -2.0625 24.34375 -3.515625q13.796875 -1.46875 27.578125 -2.5q13.796875 -1.03125 24.640625 -1.03125zm38.71875 59.546875l-0.296875 24.34375l-64.53125 0.296875q-7.921875 0 -11.296875 3.8125q-3.359375 3.8125 -3.359375 10.265625l0 7.046875q0 7.328125 4.09375 11.296875q4.109375 3.953125 13.203125 3.953125q7.625 0 16.578125 -3.21875q8.953125 -3.234375 17.75 -9.09375q8.796875 -5.875 15.546875 -13.796875l0 18.765625q-2.640625 4.40625 -7.78125 11.015625q-5.125 6.59375 -13.046875 12.90625q-7.921875 6.296875 -18.484375 10.703125q-10.5625 4.390625 -24.046875 4.390625q-13.203125 0 -23.765625 -4.6875q-10.5625 -4.6875 -16.71875 -13.78125q-6.15625 -9.09375 -6.15625 -22.59375l0 -14.953125q0 -17.3125 11.734375 -26.984375q11.734375 -9.6875 32.265625 -9.6875l78.3125 0z" fill-rule="nonzero"/><path fill="#e06666" d="m3.1465886 3.0596724l189.1181 378.23624l189.11812 -378.23624z" fill-rule="evenodd"/><path stroke="#ffffff" stroke-width="4.0" stroke-linejoin="round" stroke-linecap="butt" d="m3.1465886 3.0596724l189.1181 378.23624l189.11812 -378.23624z" fill-rule="evenodd"/><path fill="#6aa84f" d="m3.1465886 2.8497806l94.566925 189.13387l94.566925 -189.13387z" fill-rule="evenodd"/><path stroke="#ffffff" stroke-width="4.0" stroke-linejoin="round" stroke-linecap="butt" d="m3.1465886 2.8497806l94.566925 189.13387l94.566925 -189.13387z" fill-rule="evenodd"/><path fill="#4a86e8" d="m192.49046 2.8497806l94.56694 189.13387l94.566925 -189.13387z" fill-rule="evenodd"/><path stroke="#ffffff" stroke-width="4.0" stroke-linejoin="round" stroke-linecap="butt" d="m192.49046 2.8497806l94.56694 189.13387l94.566925 -189.13387z" fill-rule="evenodd"/><path fill="#ff9900" d="m97.6288 191.81421l94.566925 189.13385l94.56694 -189.13385z" fill-rule="evenodd"/><path stroke="#ffffff" stroke-width="4.0" stroke-linejoin="round" stroke-linecap="butt" d="m97.6288 191.81421l94.566925 189.13385l94.56694 -189.13385z" fill-rule="evenodd"/><path fill="#000000" fill-opacity="0.0" d="m0.005249344 270.45932l1536.0 0l0 111.49606l-1536.0 0z" fill-rule="evenodd"/><path fill="#666666" d="m417.98962 360.86734l-12.1875 0l0 -16.5l-42.84375 0l0 16.5l-12.1875 0l0 -33.609375q0 -7.359375 2.53125 -13.546875q2.53125 -6.1875 7.03125 -10.640625q4.5 -4.453125 10.640625 -6.9375q6.140625 -2.484375 13.40625 -2.484375l27.46875 0q1.265625 0 2.390625 0.46875q1.125 0.46875 1.96875 1.3125q0.84375 0.84375 1.3125 1.96875q0.46875 1.125 0.46875 2.390625l0 61.078125zm-55.03125 -28.6875l42.84375 0l0 -26.34375l-21.421875 0q-0.5625 0 -2.375 0.171875q-1.796875 0.15625 -4.171875 0.8125q-2.359375 0.65625 -4.984375 2.015625q-2.625 1.359375 -4.828125 3.75q-2.203125 2.390625 -3.640625 5.984375q-1.421875 3.578125 -1.421875 8.6875l0 4.921875zm185.67188 22.546875q0 1.3125 -0.46875 2.4375q-0.46875 1.125 -1.296875 1.953125q-0.8125 0.8125 -1.921875 1.28125q-1.09375 0.46875 -2.359375 0.46875l-27.5625 0q-2.25 0 -4.8125 -0.515625q-2.546875 -0.515625 -5.03125 -1.65625q-2.484375 -1.15625 -4.8125 -2.90625q-2.3125 -1.765625 -4.046875 -4.265625q-1.734375 -2.515625 -2.796875 -5.796875q-1.046875 -3.28125 -1.046875 -7.40625l0 -28.125l12.1875 0l0 28.125q0 2.390625 0.8125 4.296875q0.828125 1.890625 2.234375 3.25q1.40625 1.359375 3.296875 2.09375q1.90625 0.71875 4.109375 0.71875l21.328125 0l0 -38.484375l12.1875 0l0 44.53125zm119.203125 -32.34375l-21.28125 0l0 38.484375l-12.328125 0l0 -38.484375l-15.84375 0l0 -12.1875l15.84375 0l0 -16.546875l12.328125 0l0 16.546875l21.28125 0l0 12.1875zm124.828125 21.375q0 3.140625 -0.796875 5.65625q-0.796875 2.5 -2.109375 4.40625q-1.3125 1.890625 -3.046875 3.234375q-1.734375 1.328125 -3.640625 2.171875q-1.890625 0.84375 -3.84375 1.25q-1.9375 0.390625 -3.671875 0.390625l-21.984375 0q-2.53125 0 -5.53125 -0.890625q-3.0 -0.890625 -5.5625 -2.921875q-2.546875 -2.046875 -4.265625 -5.296875q-1.703125 -3.265625 -1.703125 -8.0l0 -16.5q0 -4.6875 1.703125 -7.9375q1.71875 -3.265625 4.265625 -5.296875q2.5625 -2.046875 5.5625 -2.9375q3.0 -0.890625 5.53125 -0.890625l21.984375 0q4.6875 0 7.96875 1.6875q3.28125 1.6875 5.296875 4.25q2.015625 2.546875 2.921875 5.546875q0.921875 3.0 0.921875 5.578125l0 16.5zm-12.1875 -16.40625q0 -2.53125 -1.265625 -3.75q-1.265625 -1.21875 -3.65625 -1.21875l-21.890625 0q-2.4375 0 -3.703125 1.25q-1.265625 1.234375 -1.265625 3.625l0 16.5q0 2.390625 1.265625 3.65625q1.265625 1.265625 3.703125 1.265625l21.890625 0q2.484375 0 3.703125 -1.265625q1.21875 -1.265625 1.21875 -3.65625l0 -16.40625zm130.21875 33.515625l-12.1875 0l0 -33.609375q0 -2.390625 -1.265625 -3.625q-1.265625 -1.25 -3.75 -1.25l-15.84375 0l0 38.484375l-12.1875 0l0 -44.625q0 -1.265625 0.46875 -2.359375q0.46875 -1.109375 1.3125 -1.921875q0.84375 -0.828125 1.96875 -1.296875q1.125 -0.46875 2.390625 -0.46875l21.984375 0q2.53125 0 5.4375 0.890625q2.90625 0.890625 5.53125 2.859375l0 -3.75l16.5 0q1.734375 0 3.65625 0.40625q1.921875 0.390625 3.8125 1.234375q1.90625 0.84375 3.640625 2.1875q1.734375 1.328125 3.046875 3.234375q1.3125 1.890625 2.109375 4.375q0.796875 2.484375 0.796875 5.625l0 33.609375l-12.1875 0l0 -33.609375q0 -2.390625 -1.203125 -3.625q-1.1875 -1.25 -3.671875 -1.25l-10.96875 0q0.609375 2.25 0.609375 4.875l0 33.609375zm152.90625 -16.78125q0 2.53125 -0.890625 5.46875q-0.890625 2.921875 -2.890625 5.4375q-1.984375 2.5 -5.203125 4.1875q-3.203125 1.6875 -7.796875 1.6875l-21.984375 0q-2.53125 0 -5.46875 -0.890625q-2.921875 -0.890625 -5.4375 -2.875q-2.5 -2.0 -4.1875 -5.203125q-1.6875 -3.21875 -1.6875 -7.8125q0 -2.53125 0.890625 -5.484375q0.890625 -2.953125 2.875 -5.453125q2.0 -2.515625 5.203125 -4.203125q3.21875 -1.6875 7.8125 -1.6875l21.984375 0l0 11.625l-21.984375 0q-2.484375 0 -3.84375 1.53125q-1.359375 1.515625 -1.359375 3.765625q0 2.390625 1.5625 3.734375q1.578125 1.328125 3.734375 1.328125l21.890625 0q2.484375 0 3.84375 -1.5q1.359375 -1.5 1.359375 -3.75l0 -17.015625q0 -2.390625 -1.484375 -3.796875q-1.46875 -1.40625 -3.71875 -1.40625l-26.765625 0l0 -11.578125l26.765625 0q2.53125 0 5.453125 0.890625q2.9375 0.890625 5.4375 2.890625q2.515625 1.984375 4.203125 5.203125q1.6875 3.203125 1.6875 7.796875l0 17.109375zm118.171875 -21.703125l-21.28125 0l0 38.484375l-12.328125 0l0 -38.484375l-15.84375 0l0 -12.1875l15.84375 0l0 -16.546875l12.328125 0l0 16.546875l21.28125 0l0 12.1875zm82.078125 -22.59375l-12.1875 0l0 -11.015625l12.1875 0l0 11.015625zm0 61.078125l-12.1875 0l0 -50.671875l12.1875 0l0 50.671875zm129.23438 -17.109375q0 3.140625 -0.796875 5.65625q-0.796875 2.5 -2.109375 4.40625q-1.3125 1.890625 -3.046875 3.234375q-1.734375 1.328125 -3.640625 2.171875q-1.890625 0.84375 -3.84375 1.25q-1.9375 0.390625 -3.671875 0.390625l-21.984375 0q-2.53125 0 -5.53125 -0.890625q-3.0 -0.890625 -5.5625 -2.921875q-2.546875 -2.046875 -4.265625 -5.296875q-1.703125 -3.265625 -1.703125 -8.0l0 -16.5q0 -4.6875 1.703125 -7.9375q1.71875 -3.265625 4.265625 -5.296875q2.5625 -2.046875 5.5625 -2.9375q3.0 -0.890625 5.53125 -0.890625l21.984375 0q4.6875 0 7.96875 1.6875q3.28125 1.6875 5.296875 4.25q2.015625 2.546875 2.921875 5.546875q0.921875 3.0 0.921875 5.578125l0 16.5zm-12.1875 -16.40625q0 -2.53125 -1.265625 -3.75q-1.265625 -1.21875 -3.65625 -1.21875l-21.890625 0q-2.4375 0 -3.703125 1.25q-1.265625 1.234375 -1.265625 3.625l0 16.5q0 2.390625 1.265625 3.65625q1.265625 1.265625 3.703125 1.265625l21.890625 0q2.484375 0 3.703125 -1.265625q1.21875 -1.265625 1.21875 -3.65625l0 -16.40625zm141.14062 33.515625l-12.1875 0l0 -28.125q0 -2.390625 -0.828125 -4.28125q-0.8125 -1.90625 -2.21875 -3.265625q-1.40625 -1.359375 -3.3125 -2.078125q-1.890625 -0.734375 -4.09375 -0.734375l-21.328125 0l0 38.484375l-12.1875 0l0 -44.625q0 -1.265625 0.46875 -2.359375q0.46875 -1.109375 1.3125 -1.921875q0.84375 -0.828125 1.96875 -1.296875q1.125 -0.46875 2.390625 -0.46875l27.46875 0q2.296875 0 4.84375 0.515625q2.5625 0.515625 5.0625 1.671875q2.515625 1.140625 4.78125 2.90625q2.28125 1.75 4.03125 4.265625q1.765625 2.5 2.796875 5.78125q1.03125 3.28125 1.03125 7.40625l0 28.125z" fill-rule="nonzero"/></g></svg>